<?xml version="1.0" standalone="no"?>
<!DOCTYPE svg PUBLIC "-//W3C//DTD SVG 20010904//EN"
 "http://www.w3.org/TR/2001/REC-SVG-20010904/DTD/svg10.dtd">
<svg version="1.0" xmlns="http://www.w3.org/2000/svg"
 width="1551.000000pt" height="1706.000000pt" viewBox="0 0 1551.000000 1706.000000"
 preserveAspectRatio="xMidYMid meet">
<metadata>
Created by potrace 1.16, written by Peter Selinger 2001-2019
</metadata>
<g transform="translate(0.000000,1706.000000) scale(0.100000,-0.100000)"
fill="red" stroke="none">
<path d="M2030 17044 c-25 -7 -54 -14 -66 -14 -19 0 -77 -16 -222 -61 -123
-38 -256 -94 -417 -177 -60 -31 -242 -147 -305 -196 -310 -239 -534 -502 -713
-839 -136 -256 -223 -540 -264 -857 -17 -127 -18 -403 -18 -4670 0 -4251 1
-4543 17 -4665 18 -132 39 -240 63 -330 30 -108 58 -201 71 -232 8 -17 14 -34
14 -38 0 -32 168 -360 240 -470 43 -65 91 -132 107 -150 10 -11 46 -54 79 -95
71 -86 212 -227 299 -297 33 -26 69 -56 80 -66 47 -42 249 -170 365 -230 456
-238 969 -326 1495 -257 149 19 405 84 502 126 17 8 34 14 38 14 3 0 27 9 53
21 26 11 63 27 82 36 135 60 600 298 600 308 0 6 -24 25 -52 41 -29 16 -62 34
-73 41 -11 6 -33 19 -50 27 -16 9 -42 24 -56 33 -40 27 -137 86 -165 101 -13
7 -24 17 -24 23 0 5 -5 9 -11 9 -6 0 -48 26 -92 57 -308 215 -621 498 -878
793 -148 169 -365 462 -454 612 -5 9 -38 65 -73 125 -35 59 -67 115 -72 123
-35 59 -192 389 -236 495 -185 450 -314 1016 -344 1505 -23 373 -5 748 51
1090 36 215 43 252 75 366 8 28 14 57 14 65 0 15 19 79 79 269 72 222 108 319
167 448 19 41 34 76 34 78 0 17 160 325 233 449 200 340 398 605 657 879 216
230 504 481 718 627 191 131 298 202 316 210 12 5 36 18 54 29 73 45 101 61
187 105 50 25 97 50 105 56 18 11 230 109 236 109 3 0 21 7 42 17 80 35 277
109 327 123 17 4 41 12 55 18 35 15 302 92 319 92 8 0 37 6 65 14 104 29 332
71 466 86 47 6 114 14 150 20 36 5 207 13 380 16 305 6 517 -2 675 -25 39 -6
104 -15 145 -21 197 -27 293 -47 540 -110 104 -27 149 -41 265 -81 50 -17 106
-35 126 -39 19 -5 49 -16 65 -25 16 -8 34 -15 41 -15 6 0 24 -6 40 -14 15 -8
53 -25 83 -37 119 -47 369 -169 484 -234 37 -22 91 -53 120 -69 154 -85 518
-348 686 -494 292 -255 564 -550 762 -827 61 -86 159 -229 185 -271 50 -80
144 -243 181 -314 67 -128 122 -238 122 -244 0 -3 15 -39 34 -78 18 -40 41
-91 49 -113 9 -22 28 -71 43 -110 267 -689 368 -1470 290 -2235 -9 -85 -21
-175 -26 -200 -12 -60 -12 -70 2 -70 9 0 382 183 448 220 8 5 193 97 410 206
403 201 445 223 492 252 98 62 248 170 333 241 81 69 260 258 335 356 147 190
227 323 323 535 18 41 44 104 56 140 12 36 27 79 32 95 16 45 38 132 54 208 8
37 16 71 19 75 14 23 46 353 46 472 0 204 -40 490 -96 680 -9 30 -22 75 -29
100 -47 162 -174 419 -298 607 -136 205 -383 467 -552 587 -100 71 -220 152
-235 159 -8 4 -35 19 -60 33 -54 32 -8881 4447 -8971 4488 -75 33 -258 97
-344 120 -218 57 -207 56 -658 55 -335 0 -431 -3 -467 -15z"/>
<path d="M6235 11913 c-114 -15 -260 -66 -370 -129 -258 -150 -424 -368 -507
-669 -18 -68 -22 -106 -22 -250 0 -145 3 -183 22 -255 12 -47 27 -94 32 -105
5 -11 21 -49 36 -85 57 -141 179 -293 324 -405 49 -37 194 -125 207 -125 3 0
19 -6 36 -14 116 -52 285 -80 438 -73 209 10 320 43 519 152 65 36 202 159
267 240 128 159 201 332 229 543 16 122 16 137 0 248 -21 149 -52 252 -108
359 -124 236 -312 403 -583 517 -38 16 -130 39 -195 48 -63 9 -264 11 -325 3z"/>
<path d="M3355 9784 c-111 -16 -329 -88 -366 -120 -8 -8 -20 -14 -26 -14 -20
0 -180 -129 -248 -201 -147 -156 -234 -337 -275 -574 -22 -126 -3 -339 41
-470 112 -335 367 -588 694 -688 120 -37 209 -51 320 -51 352 0 696 188 886
485 79 123 91 149 151 349 21 72 18 386 -5 475 -54 206 -141 360 -287 505
-147 146 -288 226 -500 281 -73 19 -313 33 -385 23z"/>
<path d="M9165 9784 c-119 -17 -337 -86 -376 -120 -8 -8 -20 -14 -26 -14 -13
0 -178 -123 -214 -159 -208 -210 -319 -476 -319 -764 0 -287 109 -550 313
-751 125 -123 258 -204 422 -258 111 -37 287 -62 375 -53 92 8 206 29 270 50
272 85 522 303 638 555 81 177 97 253 97 460 0 213 -17 291 -104 470 -64 133
-155 247 -271 344 -133 111 -252 170 -445 221 -58 15 -296 28 -360 19z"/>
<path d="M6240 8699 c-115 -45 -206 -124 -255 -219 -55 -109 -69 -224 -39
-328 51 -180 173 -294 361 -338 220 -51 453 92 528 325 14 41 16 76 13 150 -4
86 -9 104 -43 173 -48 99 -113 165 -213 214 -73 37 -82 39 -187 41 -93 3 -119
0 -165 -18z"/>
<path d="M13365 8221 c-385 -197 -1802 -919 -3150 -1606 -1347 -686 -2544
-1296 -2660 -1355 -115 -59 -334 -170 -485 -247 -151 -77 -399 -204 -550 -281
-151 -77 -626 -319 -1055 -537 -429 -219 -897 -457 -1040 -530 -143 -73 -496
-253 -785 -400 -888 -452 -940 -479 -938 -492 2 -7 318 -631 703 -1387 525
-1032 704 -1374 715 -1371 8 3 285 143 615 311 330 168 764 389 965 491 201
102 455 232 565 288 110 57 569 291 1020 520 451 229 928 472 1060 540 132 67
481 245 775 395 294 150 652 332 795 405 407 208 1208 616 2355 1200 580 295
1172 597 1315 670 143 73 625 318 1070 545 446 227 815 417 821 424 9 8 -166
359 -692 1391 -387 759 -707 1381 -711 1382 -4 1 -323 -159 -708 -356z m823
57 c66 -128 193 -377 282 -553 89 -176 211 -414 270 -530 436 -852 680 -1335
680 -1348 0 -10 -123 -78 -357 -198 -197 -100 -466 -237 -598 -304 -132 -68
-472 -241 -755 -385 -283 -144 -636 -324 -785 -400 -148 -76 -511 -260 -805
-410 -573 -292 -1376 -701 -1840 -937 -157 -80 -393 -201 -525 -268 -132 -68
-958 -488 -1835 -935 -877 -447 -1698 -865 -1825 -930 -965 -494 -1945 -990
-1957 -990 -17 0 -1374 2659 -1362 2670 5 4 1199 614 2654 1355 1455 741 2794
1423 2975 1516 2348 1198 5652 2879 5657 2879 4 0 60 -105 126 -232z"/>
<path d="M13679 6941 c-61 -19 -109 -51 -149 -95 -37 -42 -49 -75 -50 -133 0
-29 -4 -53 -8 -53 -5 0 -19 21 -31 48 -44 94 -27 94 -225 -5 -97 -48 -176 -93
-176 -100 0 -17 4 -17 51 8 23 11 43 19 45 16 2 -2 80 -154 173 -337 119 -233
167 -338 160 -346 -5 -7 -23 -17 -39 -24 -29 -12 -41 -30 -20 -30 27 0 421
210 415 221 -4 5 -20 2 -36 -7 -17 -8 -32 -14 -34 -12 -12 13 -221 429 -236
470 -59 163 31 323 119 211 30 -40 302 -562 302 -582 0 -6 -11 -17 -25 -23
-14 -6 -25 -18 -25 -25 0 -10 73 23 210 93 116 60 210 114 210 121 0 9 -13 6
-45 -9 -24 -12 -46 -20 -48 -17 -2 2 -63 119 -134 260 -72 141 -142 269 -155
284 -34 40 -105 78 -152 81 -22 2 -66 -4 -97 -15z"/>
<path d="M12600 6876 c-96 -51 -123 -122 -81 -210 49 -99 162 -114 262 -34 53
43 65 117 30 185 -42 84 -121 106 -211 59z"/>
<path d="M12743 6462 c-95 -48 -173 -92 -173 -99 0 -17 4 -16 42 7 18 11 38
20 44 20 10 0 343 -640 352 -675 2 -6 -16 -20 -38 -30 -25 -11 -37 -22 -31
-28 10 -10 441 208 441 224 0 13 -6 12 -50 -11 l-39 -20 -178 350 c-98 192
-182 350 -188 349 -5 0 -88 -39 -182 -87z"/>
<path d="M11605 6399 c-94 -49 -174 -90 -180 -92 -5 -3 -7 -8 -2 -12 4 -5 23
-1 43 8 19 10 40 15 45 12 5 -4 61 -110 124 -236 64 -127 129 -254 144 -282
55 -102 281 -556 281 -564 0 -5 -16 -17 -35 -26 -32 -15 -47 -37 -27 -37 21 0
422 213 417 221 -4 5 -19 2 -36 -7 -17 -8 -32 -14 -33 -12 -2 2 -59 113 -127
247 -123 242 -124 245 -127 320 -2 62 1 82 17 108 20 32 58 50 85 40 24 -9 75
-97 212 -365 107 -210 126 -255 114 -262 -38 -23 -44 -29 -37 -37 4 -4 99 40
210 97 227 116 213 108 204 117 -4 4 -23 -1 -43 -10 -19 -10 -40 -15 -45 -11
-5 3 -64 114 -131 247 -66 133 -137 261 -157 286 -38 47 -117 91 -162 91 -47
0 -153 -39 -200 -74 -56 -41 -89 -104 -91 -175 -2 -51 -12 -66 -23 -33 -3 9
-65 133 -138 274 l-132 256 -170 -89z"/>
<path d="M11282 6125 c-14 -30 -41 -42 -137 -62 -191 -39 -321 -128 -384 -263
-21 -46 -26 -70 -26 -145 0 -85 2 -94 38 -163 61 -118 114 -165 217 -196 78
-23 173 -18 355 18 68 13 163 16 205 6 82 -20 141 -94 142 -179 0 -58 -20
-100 -70 -147 -115 -109 -315 -96 -544 36 -49 29 -92 50 -95 47 -3 -3 6 -25
19 -49 14 -24 57 -99 96 -168 38 -68 75 -126 81 -128 6 -2 11 9 11 27 0 24 7
34 30 46 16 8 36 15 45 15 20 0 250 77 290 97 80 40 163 124 203 203 24 49 27
66 27 155 0 98 -1 102 -44 188 -91 184 -237 243 -482 193 -126 -26 -132 -27
-204 -33 -40 -3 -88 0 -111 6 -55 15 -102 64 -111 116 -16 88 3 136 76 193
116 92 278 74 475 -52 32 -21 61 -34 64 -31 7 7 -127 267 -150 290 -2 3 -10
-6 -16 -20z"/>
<path d="M10485 5304 c-177 -47 -295 -134 -358 -264 -54 -113 -48 -228 20
-365 119 -236 335 -299 580 -170 173 91 223 176 214 358 -3 59 -19 14 -23 -65
-5 -93 -30 -145 -91 -192 -115 -88 -227 -59 -319 81 -52 78 -88 146 -88 165 0
8 90 58 201 113 110 55 205 106 211 113 8 9 1 26 -26 67 -77 111 -140 153
-237 160 -35 2 -73 2 -84 -1z m-51 -107 c38 -41 136 -215 130 -231 -4 -10
-145 -86 -159 -86 -3 0 -26 44 -51 97 -64 138 -71 217 -22 241 41 19 69 14
102 -21z"/>
<path d="M9525 5143 c-16 -14 -61 -53 -99 -87 -38 -33 -77 -67 -87 -74 -18
-12 -16 -18 31 -112 l50 -100 -40 -20 c-39 -20 -53 -40 -27 -40 6 1 23 7 37
15 14 8 30 14 37 15 6 0 64 -105 129 -232 169 -337 176 -348 247 -385 105 -54
333 41 388 161 28 63 19 216 -13 216 -6 0 -8 -9 -4 -22 4 -13 9 -46 13 -73 13
-117 -82 -201 -153 -134 -27 25 -328 604 -321 617 3 4 46 27 96 52 82 40 109
60 81 60 -6 0 -51 -21 -101 -46 -50 -25 -92 -44 -94 -42 -1 2 -28 53 -58 113
-76 152 -75 150 -112 118z"/>
<path d="M8306 4629 c-76 -39 -135 -73 -132 -76 4 -4 38 8 76 27 38 19 72 32
74 29 8 -7 15 -84 21 -224 3 -71 8 -183 11 -247 4 -65 3 -118 -1 -118 -6 0
-86 63 -121 95 -6 5 -30 26 -54 45 -24 19 -48 40 -54 45 -6 6 -47 39 -91 75
-154 125 -150 117 -83 151 22 11 38 23 35 26 -4 4 -461 -220 -476 -233 -2 -2
-2 -7 1 -10 4 -3 20 2 38 11 l31 16 70 -51 c38 -28 77 -57 87 -65 9 -8 100
-78 202 -155 l185 -142 122 -236 c68 -131 123 -239 123 -242 0 -3 -20 -16 -45
-29 -40 -21 -58 -40 -37 -41 19 -1 472 237 472 248 0 9 -12 6 -40 -8 -21 -11
-45 -20 -53 -20 -7 0 -69 109 -139 248 -142 278 -131 235 -144 542 -13 275
-11 351 6 361 135 76 83 62 -84 -22z"/>
<path d="M9087 4580 c-162 -27 -333 -144 -394 -269 -25 -49 -28 -67 -28 -151
0 -81 4 -105 27 -163 96 -235 265 -335 472 -278 161 44 293 140 348 251 18 37
22 62 22 135 0 50 -3 99 -7 110 -87 273 -238 398 -440 365z m-54 -114 c63 -65
286 -506 294 -580 5 -49 3 -57 -20 -80 -54 -54 -105 -43 -166 34 -41 52 -227
410 -255 491 -25 71 -21 116 13 150 44 44 81 40 134 -15z"/>
<path d="M6785 3945 c-88 -47 -164 -86 -170 -88 -5 -3 -7 -7 -3 -11 3 -4 20 0
37 8 16 9 34 16 40 16 10 0 553 -1060 559 -1090 2 -10 -11 -22 -33 -33 -19 -9
-35 -22 -35 -28 0 -6 77 29 171 77 150 78 169 91 164 109 -4 11 -9 33 -12 48
l-5 28 37 -25 c45 -31 78 -32 146 -6 133 50 219 146 235 262 21 150 -131 441
-272 524 -59 35 -152 43 -221 20 -99 -33 -158 -96 -177 -188 l-13 -62 -134
262 c-74 144 -138 262 -144 261 -5 0 -82 -38 -170 -84z m622 -335 c80 -82 273
-484 273 -568 0 -91 -115 -110 -186 -30 -38 42 -222 412 -229 462 -21 135 64
216 142 136z"/>
<path d="M6527 3294 c-92 -46 -165 -89 -162 -94 4 -6 18 -4 37 6 30 15 32 15
45 -2 8 -11 71 -131 140 -269 110 -218 126 -257 130 -310 4 -51 2 -64 -17 -88
-46 -58 -89 -52 -134 16 -15 23 -88 161 -161 307 -74 146 -139 271 -144 279
-8 12 -41 -2 -185 -75 -97 -49 -176 -95 -176 -101 0 -9 14 -6 45 9 24 12 46
20 48 17 2 -2 62 -118 133 -257 159 -313 196 -359 299 -376 83 -14 228 54 285
134 11 16 24 52 27 80 3 27 9 50 13 50 4 0 20 -20 36 -45 15 -25 33 -44 39
-43 39 11 335 171 330 178 -4 6 -22 2 -46 -10 -22 -12 -43 -19 -47 -16 -4 3
-86 160 -182 350 -96 190 -177 345 -180 345 -3 0 -81 -38 -173 -85z"/>
<path d="M5590 3230 c0 -28 -37 -48 -116 -64 -95 -20 -101 -21 -173 -50 -141
-56 -236 -167 -260 -303 -15 -81 -6 -132 37 -223 42 -86 97 -146 168 -181 44
-21 61 -24 169 -23 74 0 150 7 200 18 115 25 223 24 278 -3 80 -39 120 -126
97 -212 -16 -59 -92 -131 -162 -155 -116 -38 -295 1 -457 101 -70 43 -91 52
-91 39 0 -3 22 -43 49 -88 27 -44 59 -101 71 -126 31 -63 74 -130 83 -130 4 0
7 11 7 25 0 26 48 65 81 65 21 0 138 36 219 67 243 94 352 291 281 510 -43
133 -130 228 -238 259 -69 20 -182 15 -337 -15 -211 -41 -301 -24 -345 64 -27
54 -27 110 0 159 24 44 31 52 77 85 104 73 267 53 442 -55 68 -42 90 -51 90
-39 0 15 -158 295 -166 295 -2 0 -4 -9 -4 -20z"/>
<path d="M4584 2732 l-192 -97 34 -125 c18 -69 35 -136 38 -150 3 -14 37 -153
75 -310 38 -156 67 -287 65 -290 -3 -2 -18 10 -33 28 -16 17 -57 64 -92 103
-35 40 -71 80 -79 89 -8 9 -44 50 -80 90 -76 85 -87 97 -120 137 -14 17 -54
63 -90 103 -36 40 -75 84 -87 98 -15 17 -27 23 -40 18 -62 -24 -382 -199 -378
-207 4 -5 23 0 45 11 l39 20 74 -143 c108 -206 447 -874 447 -879 0 -3 -18
-13 -39 -23 -26 -11 -38 -22 -34 -31 4 -11 26 -3 92 33 94 50 108 60 99 69 -3
3 -24 -4 -45 -15 l-40 -20 -247 485 c-136 267 -245 488 -243 491 7 6 67 -57
227 -237 8 -9 47 -52 87 -96 39 -43 81 -90 93 -104 12 -14 47 -52 78 -85 32
-33 95 -103 142 -155 47 -52 102 -113 122 -135 l37 -40 90 45 c50 24 91 45 91
46 0 3 -39 163 -45 184 -2 8 -38 152 -79 320 -41 168 -91 366 -110 440 -36
137 -44 182 -27 165 19 -20 492 -956 487 -964 -3 -5 -19 -14 -36 -21 -16 -7
-30 -19 -30 -27 0 -9 71 22 208 91 114 58 216 112 227 120 33 24 10 29 -33 7
l-41 -21 -255 504 c-141 277 -256 509 -256 515 0 6 16 19 35 28 35 17 46 33
23 32 -7 0 -99 -44 -204 -97z"/>
<path d="M7990 6731 c-85 -10 -247 -58 -307 -90 -197 -106 -325 -217 -426
-368 -50 -76 -137 -254 -137 -283 0 -6 -7 -32 -15 -58 -43 -139 -30 -516 19
-535 8 -3 425 200 928 451 728 364 914 461 916 477 4 26 -134 165 -223 227
-56 39 -186 106 -237 123 -30 10 -103 31 -153 44 -54 14 -284 21 -365 12z"/>
<path d="M4435 6600 c-362 -79 -638 -308 -772 -642 -59 -144 -76 -237 -76
-398 0 -163 18 -255 78 -404 161 -399 546 -656 981 -656 77 0 152 6 184 14 30
7 72 17 92 20 52 9 181 62 253 104 153 89 329 265 395 396 12 23 25 48 29 56
63 118 111 319 111 468 0 89 -26 247 -56 337 -88 269 -303 510 -564 631 -189
87 -457 118 -655 74z"/>
</g>
</svg>
